<svg xmlns="http://www.w3.org/2000/svg" width="83" height="83" viewBox="0 0 83 83">
  <g id="tabs-expandables" transform="translate(-576 -324)">
    <rect id="bb" width="83" height="83" transform="translate(576 324)" fill="none"/>
    <g id="icon" transform="translate(0 3.5)">
      <path id="Line_26" data-name="Line 26" d="M0,6.5A.5.5,0,0,1-.5,6V0A.5.5,0,0,1,0-.5.5.5,0,0,1,.5,0V6A.5.5,0,0,1,0,6.5Z" transform="translate(585.5 344.5)"/>
      <path id="Line_27" data-name="Line 27" d="M15,.5H0A.5.5,0,0,1-.5,0,.5.5,0,0,1,0-.5H15a.5.5,0,0,1,.5.5A.5.5,0,0,1,15,.5Z" transform="translate(585.5 344.5)"/>
      <path id="Line_28" data-name="Line 28" d="M0,6.5A.5.5,0,0,1-.5,6V0A.5.5,0,0,1,0-.5.5.5,0,0,1,.5,0V6A.5.5,0,0,1,0,6.5Z" transform="translate(600.5 344.5)"/>
      <path id="Line_26-2" data-name="Line 26" d="M0,6.5A.5.5,0,0,1-.5,6V0A.5.5,0,0,1,0-.5.5.5,0,0,1,.5,0V6A.5.5,0,0,1,0,6.5Z" transform="translate(603.5 344.5)"/>
      <path id="Line_27-2" data-name="Line 27" d="M15,.5H0A.5.5,0,0,1-.5,0,.5.5,0,0,1,0-.5H15a.5.5,0,0,1,.5.5A.5.5,0,0,1,15,.5Z" transform="translate(603.5 344.5)"/>
      <path id="Line_28-2" data-name="Line 28" d="M0,6.5A.5.5,0,0,1-.5,6V0A.5.5,0,0,1,0-.5.5.5,0,0,1,.5,0V6A.5.5,0,0,1,0,6.5Z" transform="translate(618.5 344.5)"/>
      <path id="Line_26-3" data-name="Line 26" d="M0,6.5A.5.5,0,0,1-.5,6V0A.5.5,0,0,1,0-.5.5.5,0,0,1,.5,0V6A.5.5,0,0,1,0,6.5Z" transform="translate(621.5 344.5)"/>
      <path id="Line_27-3" data-name="Line 27" d="M15,.5H0A.5.5,0,0,1-.5,0,.5.5,0,0,1,0-.5H15a.5.5,0,0,1,.5.5A.5.5,0,0,1,15,.5Z" transform="translate(621.5 344.5)"/>
      <path id="Line_28-3" data-name="Line 28" d="M0,6.5A.5.5,0,0,1-.5,6V0A.5.5,0,0,1,0-.5.5.5,0,0,1,.5,0V6A.5.5,0,0,1,0,6.5Z" transform="translate(636.5 344.5)"/>
      <path id="Line_29" data-name="Line 29" d="M0,30.5A.5.5,0,0,1-.5,30V0A.5.5,0,0,1,0-.5.5.5,0,0,1,.5,0V30A.5.5,0,0,1,0,30.5Z" transform="translate(649.5 350.5)"/>
      <path id="Line_32" data-name="Line 32" d="M0,30.5A.5.5,0,0,1-.5,30V0A.5.5,0,0,1,0-.5.5.5,0,0,1,.5,0V30A.5.5,0,0,1,0,30.5Z" transform="translate(585.5 350.5)"/>
      <path id="Line_30" data-name="Line 30" d="M64,.5H0A.5.5,0,0,1-.5,0,.5.5,0,0,1,0-.5H64a.5.5,0,0,1,.5.5A.5.5,0,0,1,64,.5Z" transform="translate(585.5 380.5)"/>
      <path id="Line_31" data-name="Line 31" d="M49,.5H0A.5.5,0,0,1-.5,0,.5.5,0,0,1,0-.5H49a.5.5,0,0,1,.5.5A.5.5,0,0,1,49,.5Z" transform="translate(600.5 350.5)"/>
    </g>
  </g>
</svg>
