<svg xmlns="http://www.w3.org/2000/svg" width="83" height="83" viewBox="0 0 83 83">
  <g id="four_across-related" transform="translate(-576 -324)">
    <rect id="bb" width="83" height="83" transform="translate(576 324)" fill="none"/>
    <g id="icon" transform="translate(1.5 -0.632)">
      <path id="Rectangle_1" data-name="Rectangle 1" d="M0-.5H17.8a.5.5,0,0,1,.5.5V12.716a.5.5,0,0,1-.5.5H0a.5.5,0,0,1-.5-.5V0A.5.5,0,0,1,0-.5ZM17.3.5H.5V12.216H17.3Z" transform="translate(577 356.632)"/>
      <path id="Path_1" data-name="Path 1" d="M48,148.755a.5.5,0,0,1-.354-.854l4.255-4.255a.5.5,0,0,1,.707,0l3.095,3.095a.5.5,0,1,1-.707.707l-2.741-2.741-3.9,3.9A.5.5,0,0,1,48,148.755Z" transform="translate(530.938 219.377)"/>
      <path id="Path_2" data-name="Path 2" d="M184.124,117.142a.5.5,0,0,1-.354-.146l-4.289-4.289-3.128,3.128a.5.5,0,1,1-.707-.707l3.482-3.482a.5.5,0,0,1,.707,0l4.642,4.642a.5.5,0,0,1-.354.854Z" transform="translate(409.127 249.829)"/>
      <path id="Ellipse_1" data-name="Ellipse 1" d="M1.272-.5A1.772,1.772,0,1,1-.5,1.272,1.774,1.774,0,0,1,1.272-.5Zm0,2.543A.772.772,0,1,0,.5,1.272.772.772,0,0,0,1.272,2.043Z" transform="translate(579.543 359.175)"/>
      <path id="Line_1" data-name="Line 1" d="M12.461.5H0A.5.5,0,0,1-.5,0,.5.5,0,0,1,0-.5H12.461a.5.5,0,0,1,.5.5A.5.5,0,0,1,12.461.5Z" transform="translate(577 372.463)"/>
      <path id="Line_2" data-name="Line 2" d="M10.384.5H0A.5.5,0,0,1-.5,0,.5.5,0,0,1,0-.5H10.384a.5.5,0,0,1,.5.5A.5.5,0,0,1,10.384.5Z" transform="translate(577 375.232)"/>
      <path id="Rectangle_1-2" data-name="Rectangle 1" d="M0-.5H17.8a.5.5,0,0,1,.5.5V12.716a.5.5,0,0,1-.5.5H0a.5.5,0,0,1-.5-.5V0A.5.5,0,0,1,0-.5ZM17.3.5H.5V12.216H17.3Z" transform="translate(597.076 356.632)"/>
      <path id="Path_1-2" data-name="Path 1" d="M48,148.755a.5.5,0,0,1-.354-.854l4.255-4.255a.5.5,0,0,1,.707,0l3.095,3.095a.5.5,0,1,1-.707.707l-2.741-2.741-3.9,3.9A.5.5,0,0,1,48,148.755Z" transform="translate(551.013 219.377)"/>
      <path id="Path_2-2" data-name="Path 2" d="M184.124,117.142a.5.5,0,0,1-.354-.146l-4.289-4.289-3.128,3.128a.5.5,0,1,1-.707-.707l3.482-3.482a.5.5,0,0,1,.707,0l4.642,4.642a.5.5,0,0,1-.354.854Z" transform="translate(429.203 249.829)"/>
      <path id="Ellipse_1-2" data-name="Ellipse 1" d="M1.272-.5A1.772,1.772,0,1,1-.5,1.272,1.774,1.774,0,0,1,1.272-.5Zm0,2.543A.772.772,0,1,0,.5,1.272.772.772,0,0,0,1.272,2.043Z" transform="translate(599.619 359.175)"/>
      <path id="Line_1-2" data-name="Line 1" d="M12.461.5H0A.5.5,0,0,1-.5,0,.5.5,0,0,1,0-.5H12.461a.5.5,0,0,1,.5.5A.5.5,0,0,1,12.461.5Z" transform="translate(597.076 372.463)"/>
      <path id="Line_2-2" data-name="Line 2" d="M6.532.5H0A.5.5,0,0,1-.5,0,.5.5,0,0,1,0-.5H6.532a.5.5,0,0,1,.5.5A.5.5,0,0,1,6.532.5Z" transform="translate(597.076 375.232)"/>
      <path id="Rectangle_1-3" data-name="Rectangle 1" d="M0-.5H17.8a.5.5,0,0,1,.5.5V12.716a.5.5,0,0,1-.5.5H0a.5.5,0,0,1-.5-.5V0A.5.5,0,0,1,0-.5ZM17.3.5H.5V12.216H17.3Z" transform="translate(637.228 356.632)"/>
      <path id="Path_1-3" data-name="Path 1" d="M48,148.755a.5.5,0,0,1-.354-.854l4.255-4.255a.5.5,0,0,1,.707,0l3.095,3.095a.5.5,0,1,1-.707.707l-2.741-2.741-3.9,3.9A.5.5,0,0,1,48,148.755Z" transform="translate(591.165 219.377)"/>
      <path id="Path_2-3" data-name="Path 2" d="M184.124,117.142a.5.5,0,0,1-.354-.146l-4.289-4.289-3.128,3.128a.5.5,0,1,1-.707-.707l3.482-3.482a.5.5,0,0,1,.707,0l4.642,4.642a.5.5,0,0,1-.354.854Z" transform="translate(469.355 249.829)"/>
      <path id="Ellipse_1-3" data-name="Ellipse 1" d="M1.272-.5A1.772,1.772,0,1,1-.5,1.272,1.774,1.774,0,0,1,1.272-.5Zm0,2.543A.772.772,0,1,0,.5,1.272.772.772,0,0,0,1.272,2.043Z" transform="translate(639.771 359.175)"/>
      <path id="Line_1-3" data-name="Line 1" d="M12.461.5H0A.5.5,0,0,1-.5,0,.5.5,0,0,1,0-.5H12.461a.5.5,0,0,1,.5.5A.5.5,0,0,1,12.461.5Z" transform="translate(637.227 372.463)"/>
      <path id="Line_2-3" data-name="Line 2" d="M6.532.5H0A.5.5,0,0,1-.5,0,.5.5,0,0,1,0-.5H6.532a.5.5,0,0,1,.5.5A.5.5,0,0,1,6.532.5Z" transform="translate(637.227 375.232)"/>
      <path id="Rectangle_1-4" data-name="Rectangle 1" d="M0-.5H17.8a.5.5,0,0,1,.5.5V12.716a.5.5,0,0,1-.5.5H0a.5.5,0,0,1-.5-.5V0A.5.5,0,0,1,0-.5ZM17.3.5H.5V12.216H17.3Z" transform="translate(617.152 356.632)"/>
      <path id="Path_1-4" data-name="Path 1" d="M48,148.755a.5.5,0,0,1-.354-.854l4.255-4.255a.5.5,0,0,1,.707,0l3.095,3.095a.5.5,0,1,1-.707.707l-2.741-2.741-3.9,3.9A.5.5,0,0,1,48,148.755Z" transform="translate(571.089 219.377)"/>
      <path id="Path_2-4" data-name="Path 2" d="M184.124,117.142a.5.5,0,0,1-.354-.146l-4.289-4.289-3.128,3.128a.5.5,0,1,1-.707-.707l3.482-3.482a.5.5,0,0,1,.707,0l4.642,4.642a.5.5,0,0,1-.354.854Z" transform="translate(449.279 249.829)"/>
      <path id="Ellipse_1-4" data-name="Ellipse 1" d="M1.272-.5A1.772,1.772,0,1,1-.5,1.272,1.774,1.774,0,0,1,1.272-.5Zm0,2.543A.772.772,0,1,0,.5,1.272.772.772,0,0,0,1.272,2.043Z" transform="translate(619.695 359.175)"/>
      <path id="Line_1-4" data-name="Line 1" d="M12.461.5H0A.5.5,0,0,1-.5,0,.5.5,0,0,1,0-.5H12.461a.5.5,0,0,1,.5.5A.5.5,0,0,1,12.461.5Z" transform="translate(617.152 372.463)"/>
      <path id="Line_2-4" data-name="Line 2" d="M10.384.5H0A.5.5,0,0,1-.5,0,.5.5,0,0,1,0-.5H10.384a.5.5,0,0,1,.5.5A.5.5,0,0,1,10.384.5Z" transform="translate(617.152 375.232)"/>
    </g>
  </g>
</svg>
