<svg xmlns="http://www.w3.org/2000/svg" width="83" height="83" viewBox="0 0 83 83">
  <g id="one_across_options-related" transform="translate(-576 -324)">
    <rect id="bb" width="83" height="83" transform="translate(576 324)" fill="none"/>
    <g id="icon" transform="translate(2 0.5)">
      <path id="Rectangle_1" data-name="Rectangle 1" d="M0-.5H42a.5.5,0,0,1,.5.5V30a.5.5,0,0,1-.5.5H0A.5.5,0,0,1-.5,30V0A.5.5,0,0,1,0-.5ZM41.5.5H.5v29h41Z" transform="translate(577 350)"/>
      <path id="Path_1" data-name="Path 1" d="M48,154.54a.5.5,0,0,1-.354-.854l10.04-10.04a.5.5,0,0,1,.707,0l7.3,7.3a.5.5,0,0,1-.707.707l-6.948-6.948-9.686,9.686A.5.5,0,0,1,48,154.54Z" transform="translate(533.571 221.913)"/>
      <path id="Path_2" data-name="Path 2" d="M195.167,123.452a.5.5,0,0,1-.354-.146l-10.6-10.6-7.861,7.861a.5.5,0,0,1-.707-.707l8.214-8.214a.5.5,0,0,1,.707,0L195.52,122.6a.5.5,0,0,1-.354.854Z" transform="translate(420.175 250.262)"/>
      <path id="Ellipse_1" data-name="Ellipse 1" d="M3-.5A3.5,3.5,0,1,1-.5,3,3.5,3.5,0,0,1,3-.5Zm0,6A2.5,2.5,0,1,0,.5,3,2.5,2.5,0,0,0,3,5.5Z" transform="translate(583 356)"/>
      <path id="Line_1" data-name="Line 1" d="M28,.5H0A.5.5,0,0,1-.5,0,.5.5,0,0,1,0-.5H28a.5.5,0,0,1,.5.5A.5.5,0,0,1,28,.5Z" transform="translate(625.5 354.817)"/>
      <path id="Line_2" data-name="Line 2" d="M23,.5H0A.5.5,0,0,1-.5,0,.5.5,0,0,1,0-.5H23a.5.5,0,0,1,.5.5A.5.5,0,0,1,23,.5Z" transform="translate(625.5 358.817)"/>
      <path id="Path_12" data-name="Path 12" d="M11.864.5H-1.364a.5.5,0,0,1-.5-.5.5.5,0,0,1,.5-.5H11.864a.5.5,0,0,1,.5.5A.5.5,0,0,1,11.864.5Z" transform="translate(635.469 365.024)"/>
      <path id="Path_13" data-name="Path 13" d="M6.749.5H-1.364a.5.5,0,0,1-.5-.5.5.5,0,0,1,.5-.5H6.749a.5.5,0,0,1,.5.5A.5.5,0,0,1,6.749.5Z" transform="translate(635.469 373.024)"/>
      <path id="Ellipse_14" data-name="Ellipse 14" d="M2.37-.5A2.868,2.868,0,1,1-.5,2.368,2.872,2.872,0,0,1,2.37-.5Zm0,4.735A1.868,1.868,0,1,0,.5,2.368,1.871,1.871,0,0,0,2.37,4.235Z" transform="translate(625.524 362.447)"/>
      <path id="Ellipse_15" data-name="Ellipse 15" d="M2.37-.5A2.868,2.868,0,1,1-.5,2.368,2.872,2.872,0,0,1,2.37-.5Zm0,4.735A1.868,1.868,0,1,0,.5,2.368,1.871,1.871,0,0,0,2.37,4.235Z" transform="translate(625.524 370.447)"/>
    </g>
  </g>
</svg>
