<svg xmlns="http://www.w3.org/2000/svg" width="83" height="83" viewBox="0 0 83 83">
  <g id="one_across_minimal-related" transform="translate(-586 -324)">
    <rect id="bb" width="83" height="83" transform="translate(586 324)" fill="none"/>
    <g id="icon" transform="translate(13 -13.5)">
      <path id="Rectangle_1" data-name="Rectangle 1" d="M0-.5H29a.5.5,0,0,1,.5.5V20a.5.5,0,0,1-.5.5H0A.5.5,0,0,1-.5,20V0A.5.5,0,0,1,0-.5ZM28.5.5H.5v19h28Z" transform="translate(577 356)"/>
      <path id="Path_1" data-name="Path 1" d="M48,151.324a.5.5,0,0,1-.354-.854l6.824-6.824a.5.5,0,0,1,.707,0l4.963,4.963a.5.5,0,0,1-.707.707l-4.609-4.609-6.47,6.47A.5.5,0,0,1,48,151.324Z" transform="translate(532.107 222.815)"/>
      <path id="Path_2" data-name="Path 2" d="M189.027,119.944a.5.5,0,0,1-.354-.146l-7.09-7.09-5.229,5.229a.5.5,0,0,1-.707-.707l5.583-5.583a.5.5,0,0,1,.707,0l7.444,7.444a.5.5,0,0,1-.354.854Z" transform="translate(414.032 252.334)"/>
      <path id="Ellipse_1" data-name="Ellipse 1" d="M2-.5A2.5,2.5,0,1,1-.5,2,2.5,2.5,0,0,1,2-.5Zm0,4A1.5,1.5,0,1,0,.5,2,1.5,1.5,0,0,0,2,3.5Z" transform="translate(581 360)"/>
      <path id="Line_1" data-name="Line 1" d="M39.587.5H0A.5.5,0,0,1-.5,0,.5.5,0,0,1,0-.5H39.587a.5.5,0,0,1,.5.5A.5.5,0,0,1,39.587.5Z" transform="translate(612.092 362)"/>
      <path id="Line_2" data-name="Line 2" d="M32.518.5H0A.5.5,0,0,1-.5,0,.5.5,0,0,1,0-.5H32.518a.5.5,0,0,1,.5.5A.5.5,0,0,1,32.518.5Z" transform="translate(612.092 366)"/>
      <path id="Line_3" data-name="Line 3" d="M16.408.5H0A.5.5,0,0,1-.5,0,.5.5,0,0,1,0-.5H16.408a.5.5,0,0,1,.5.5A.5.5,0,0,1,16.408.5Z" transform="translate(612.092 370)"/>
      <path id="Rectangle_1-2" data-name="Rectangle 1" d="M0-.5H29a.5.5,0,0,1,.5.5V20a.5.5,0,0,1-.5.5H0A.5.5,0,0,1-.5,20V0A.5.5,0,0,1,0-.5ZM28.5.5H.5v19h28Z" transform="translate(577 382)"/>
      <path id="Path_1-2" data-name="Path 1" d="M48,151.324a.5.5,0,0,1-.354-.854l6.824-6.824a.5.5,0,0,1,.707,0l4.963,4.963a.5.5,0,0,1-.707.707l-4.609-4.609-6.47,6.47A.5.5,0,0,1,48,151.324Z" transform="translate(532.107 248.815)"/>
      <path id="Path_2-2" data-name="Path 2" d="M189.027,119.944a.5.5,0,0,1-.354-.146l-7.09-7.09-5.229,5.229a.5.5,0,0,1-.707-.707l5.583-5.583a.5.5,0,0,1,.707,0l7.444,7.444a.5.5,0,0,1-.354.854Z" transform="translate(414.032 278.334)"/>
      <path id="Ellipse_1-2" data-name="Ellipse 1" d="M2-.5A2.5,2.5,0,1,1-.5,2,2.5,2.5,0,0,1,2-.5Zm0,4A1.5,1.5,0,1,0,.5,2,1.5,1.5,0,0,0,2,3.5Z" transform="translate(581 386)"/>
      <path id="Line_1-2" data-name="Line 1" d="M39.587.5H0A.5.5,0,0,1-.5,0,.5.5,0,0,1,0-.5H39.587a.5.5,0,0,1,.5.5A.5.5,0,0,1,39.587.5Z" transform="translate(612.092 388)"/>
      <path id="Line_2-2" data-name="Line 2" d="M21.408.5H0A.5.5,0,0,1-.5,0,.5.5,0,0,1,0-.5H21.408a.5.5,0,0,1,.5.5A.5.5,0,0,1,21.408.5Z" transform="translate(612.092 392)"/>
      <path id="Line_3-2" data-name="Line 3" d="M27.408.5H0A.5.5,0,0,1-.5,0,.5.5,0,0,1,0-.5H27.408a.5.5,0,0,1,.5.5A.5.5,0,0,1,27.408.5Z" transform="translate(612.092 396)"/>
    </g>
  </g>
</svg>
