<svg xmlns="http://www.w3.org/2000/svg" width="83" height="83" viewBox="0 0 83 83">
  <g id="three_across-related" transform="translate(-576 -324)">
    <rect id="bb" width="83" height="83" transform="translate(576 324)" fill="none"/>
    <g id="icon" transform="translate(2 -3.632)">
      <path id="Rectangle_1" data-name="Rectangle 1" d="M0-.5H23.751a.5.5,0,0,1,.5.5V16.965a.5.5,0,0,1-.5.5H0a.5.5,0,0,1-.5-.5V0A.5.5,0,0,1,0-.5ZM23.251.5H.5V16.465H23.251Z" transform="translate(577 356.632)"/>
      <path id="Path_1" data-name="Path 1" d="M48,150.177a.5.5,0,0,1-.354-.854l5.678-5.677a.5.5,0,0,1,.707,0l4.129,4.129a.5.5,0,1,1-.707.707l-3.776-3.776-5.324,5.324A.5.5,0,0,1,48,150.177Z" transform="translate(531.585 221.631)"/>
      <path id="Path_2" data-name="Path 2" d="M186.839,118.694a.5.5,0,0,1-.354-.146l-5.84-5.84L176.354,117a.5.5,0,0,1-.707-.707l4.645-4.645a.5.5,0,0,1,.707,0l6.194,6.194a.5.5,0,0,1-.354.854Z" transform="translate(411.843 251.566)"/>
      <path id="Ellipse_1" data-name="Ellipse 1" d="M1.7-.5A2.2,2.2,0,1,1-.5,1.7,2.2,2.2,0,0,1,1.7-.5Zm0,3.393A1.2,1.2,0,1,0,.5,1.7,1.2,1.2,0,0,0,1.7,2.893Z" transform="translate(580.393 360.025)"/>
      <path id="Line_1" data-name="Line 1" d="M16.625.5H0A.5.5,0,0,1-.5,0,.5.5,0,0,1,0-.5H16.625a.5.5,0,0,1,.5.5A.5.5,0,0,1,16.625.5Z" transform="translate(577 377.753)"/>
      <path id="Line_2" data-name="Line 2" d="M13.854.5H0A.5.5,0,0,1-.5,0,.5.5,0,0,1,0-.5H13.854a.5.5,0,0,1,.5.5A.5.5,0,0,1,13.854.5Z" transform="translate(577 381.448)"/>
      <path id="Rectangle_1-2" data-name="Rectangle 1" d="M0-.5H23.751a.5.5,0,0,1,.5.5V16.965a.5.5,0,0,1-.5.5H0a.5.5,0,0,1-.5-.5V0A.5.5,0,0,1,0-.5ZM23.251.5H.5V16.465H23.251Z" transform="translate(603.785 356.632)"/>
      <path id="Path_1-2" data-name="Path 1" d="M48,150.177a.5.5,0,0,1-.354-.854l5.678-5.677a.5.5,0,0,1,.707,0l4.129,4.129a.5.5,0,1,1-.707.707l-3.776-3.776-5.324,5.324A.5.5,0,0,1,48,150.177Z" transform="translate(558.37 221.631)"/>
      <path id="Path_2-2" data-name="Path 2" d="M186.839,118.694a.5.5,0,0,1-.354-.146l-5.84-5.84L176.354,117a.5.5,0,0,1-.707-.707l4.645-4.645a.5.5,0,0,1,.707,0l6.194,6.194a.5.5,0,0,1-.354.854Z" transform="translate(438.628 251.566)"/>
      <path id="Ellipse_1-2" data-name="Ellipse 1" d="M1.7-.5A2.2,2.2,0,1,1-.5,1.7,2.2,2.2,0,0,1,1.7-.5Zm0,3.393A1.2,1.2,0,1,0,.5,1.7,1.2,1.2,0,0,0,1.7,2.893Z" transform="translate(607.178 360.025)"/>
      <path id="Line_1-2" data-name="Line 1" d="M16.625.5H0A.5.5,0,0,1-.5,0,.5.5,0,0,1,0-.5H16.625a.5.5,0,0,1,.5.5A.5.5,0,0,1,16.625.5Z" transform="translate(603.785 377.753)"/>
      <path id="Line_2-2" data-name="Line 2" d="M8.715.5H0A.5.5,0,0,1-.5,0,.5.5,0,0,1,0-.5H8.715a.5.5,0,0,1,.5.5A.5.5,0,0,1,8.715.5Z" transform="translate(603.785 381.448)"/>
      <path id="Rectangle_1-3" data-name="Rectangle 1" d="M0-.5H23.751a.5.5,0,0,1,.5.5V16.965a.5.5,0,0,1-.5.5H0a.5.5,0,0,1-.5-.5V0A.5.5,0,0,1,0-.5ZM23.251.5H.5V16.465H23.251Z" transform="translate(630.569 356.632)"/>
      <path id="Path_1-3" data-name="Path 1" d="M48,150.177a.5.5,0,0,1-.354-.854l5.678-5.677a.5.5,0,0,1,.707,0l4.129,4.129a.5.5,0,1,1-.707.707l-3.776-3.776-5.324,5.324A.5.5,0,0,1,48,150.177Z" transform="translate(585.154 221.631)"/>
      <path id="Path_2-3" data-name="Path 2" d="M186.839,118.694a.5.5,0,0,1-.354-.146l-5.84-5.84L176.354,117a.5.5,0,0,1-.707-.707l4.645-4.645a.5.5,0,0,1,.707,0l6.194,6.194a.5.5,0,0,1-.354.854Z" transform="translate(465.413 251.566)"/>
      <path id="Ellipse_1-3" data-name="Ellipse 1" d="M1.7-.5A2.2,2.2,0,1,1-.5,1.7,2.2,2.2,0,0,1,1.7-.5Zm0,3.393A1.2,1.2,0,1,0,.5,1.7,1.2,1.2,0,0,0,1.7,2.893Z" transform="translate(633.962 360.025)"/>
      <path id="Line_1-3" data-name="Line 1" d="M16.625.5H0A.5.5,0,0,1-.5,0,.5.5,0,0,1,0-.5H16.625a.5.5,0,0,1,.5.5A.5.5,0,0,1,16.625.5Z" transform="translate(630.569 377.753)"/>
      <path id="Line_2-3" data-name="Line 2" d="M13.854.5H0A.5.5,0,0,1-.5,0,.5.5,0,0,1,0-.5H13.854a.5.5,0,0,1,.5.5A.5.5,0,0,1,13.854.5Z" transform="translate(630.569 381.448)"/>
    </g>
  </g>
</svg>
