<svg xmlns="http://www.w3.org/2000/svg" width="83" height="83" viewBox="0 0 83 83">
  <g id="two_across-related" transform="translate(-576 -324)">
    <rect id="bb" width="83" height="83" transform="translate(576 324)" fill="none"/>
    <g id="icon" transform="translate(3.5 -8.23)">
      <path id="Rectangle_1" data-name="Rectangle 1" d="M0-.5H35.028a.5.5,0,0,1,.5.5V25.02a.5.5,0,0,1-.5.5H0a.5.5,0,0,1-.5-.5V0A.5.5,0,0,1,0-.5ZM34.528.5H.5V24.52H34.528Z" transform="translate(577 354.98)"/>
      <path id="Path_1" data-name="Path 1" d="M48,152.873a.5.5,0,0,1-.354-.854l8.373-8.373a.5.5,0,0,1,.707,0l6.09,6.09a.5.5,0,1,1-.707.707l-5.736-5.736-8.02,8.02A.5.5,0,0,1,48,152.873Z" transform="translate(532.812 224.251)"/>
      <path id="Path_2" data-name="Path 2" d="M191.985,121.634a.5.5,0,0,1-.354-.146l-8.781-8.781-6.5,6.5a.5.5,0,1,1-.707-.707l6.851-6.851a.5.5,0,0,1,.707,0l9.134,9.134a.5.5,0,0,1-.354.854Z" transform="translate(416.991 253.207)"/>
      <path id="Ellipse_1" data-name="Ellipse 1" d="M2.5-.5a3,3,0,1,1-3,3A3.005,3.005,0,0,1,2.5-.5Zm0,5a2,2,0,1,0-2-2A2,2,0,0,0,2.5,4.5Z" transform="translate(582.004 359.984)"/>
      <path id="Line_1" data-name="Line 1" d="M28,.5H0A.5.5,0,0,1-.5,0,.5.5,0,0,1,0-.5H28a.5.5,0,0,1,.5.5A.5.5,0,0,1,28,.5Z" transform="translate(577 384.5)"/>
      <path id="Line_2" data-name="Line 2" d="M23,.5H0A.5.5,0,0,1-.5,0,.5.5,0,0,1,0-.5H23a.5.5,0,0,1,.5.5A.5.5,0,0,1,23,.5Z" transform="translate(577 388.5)"/>
      <path id="Line_3" data-name="Line 3" d="M15.5.5H0A.5.5,0,0,1-.5,0,.5.5,0,0,1,0-.5H15.5A.5.5,0,0,1,16,0,.5.5,0,0,1,15.5.5Z" transform="translate(577 392.5)"/>
      <path id="Rectangle_1-2" data-name="Rectangle 1" d="M0-.5H35.028a.5.5,0,0,1,.5.5V25.02a.5.5,0,0,1-.5.5H0a.5.5,0,0,1-.5-.5V0A.5.5,0,0,1,0-.5ZM34.528.5H.5V24.52H34.528Z" transform="translate(616 354.98)"/>
      <path id="Path_1-2" data-name="Path 1" d="M48,152.873a.5.5,0,0,1-.354-.854l8.373-8.373a.5.5,0,0,1,.707,0l6.09,6.09a.5.5,0,1,1-.707.707l-5.736-5.736-8.02,8.02A.5.5,0,0,1,48,152.873Z" transform="translate(571.812 224.251)"/>
      <path id="Path_2-2" data-name="Path 2" d="M191.985,121.634a.5.5,0,0,1-.354-.146l-8.781-8.781-6.5,6.5a.5.5,0,1,1-.707-.707l6.851-6.851a.5.5,0,0,1,.707,0l9.134,9.134a.5.5,0,0,1-.354.854Z" transform="translate(455.991 253.207)"/>
      <path id="Ellipse_1-2" data-name="Ellipse 1" d="M2.5-.5a3,3,0,1,1-3,3A3.005,3.005,0,0,1,2.5-.5Zm0,5a2,2,0,1,0-2-2A2,2,0,0,0,2.5,4.5Z" transform="translate(621.004 359.984)"/>
      <path id="Line_1-2" data-name="Line 1" d="M28,.5H0A.5.5,0,0,1-.5,0,.5.5,0,0,1,0-.5H28a.5.5,0,0,1,.5.5A.5.5,0,0,1,28,.5Z" transform="translate(616 384.5)"/>
      <path id="Line_2-2" data-name="Line 2" d="M23,.5H0A.5.5,0,0,1-.5,0,.5.5,0,0,1,0-.5H23a.5.5,0,0,1,.5.5A.5.5,0,0,1,23,.5Z" transform="translate(616 388.5)"/>
      <path id="Line_3-2" data-name="Line 3" d="M8,.5H0A.5.5,0,0,1-.5,0,.5.5,0,0,1,0-.5H8a.5.5,0,0,1,.5.5A.5.5,0,0,1,8,.5Z" transform="translate(616 392.5)"/>
    </g>
  </g>
</svg>
