<svg xmlns="http://www.w3.org/2000/svg" width="83" height="83" viewBox="0 0 83 83">
  <g id="carousel-gallery" transform="translate(-576 -324)">
    <rect id="bb" width="83" height="83" transform="translate(576 324)" fill="none"/>
    <g id="icon" transform="translate(-0.5 4.5)">
      <path id="Rectangle_1" data-name="Rectangle 1" d="M0-.5H64a.5.5,0,0,1,.5.5V30a.5.5,0,0,1-.5.5H0A.5.5,0,0,1-.5,30V0A.5.5,0,0,1,0-.5ZM63.5.5H.5v29h63Z" transform="translate(586 339)"/>
      <path id="Path_1" data-name="Path 1" d="M48,154.54a.5.5,0,0,1-.354-.854l10.04-10.04a.5.5,0,0,1,.707,0l7.3,7.3a.5.5,0,0,1-.707.707l-6.948-6.948-9.686,9.686A.5.5,0,0,1,48,154.54Z" transform="translate(553.571 210.913)"/>
      <path id="Path_2" data-name="Path 2" d="M195.167,123.452a.5.5,0,0,1-.354-.146l-10.6-10.6-7.861,7.861a.5.5,0,0,1-.707-.707l8.214-8.214a.5.5,0,0,1,.707,0L195.52,122.6a.5.5,0,0,1-.354.854Z" transform="translate(440.175 239.262)"/>
      <path id="Ellipse_1" data-name="Ellipse 1" d="M3-.5A3.5,3.5,0,1,1-.5,3,3.5,3.5,0,0,1,3-.5Zm0,6A2.5,2.5,0,1,0,.5,3,2.5,2.5,0,0,0,3,5.5Z" transform="translate(603 345)"/>
      <path id="Rectangle_18" data-name="Rectangle 18" d="M0-.5H14a.5.5,0,0,1,.5.5V8a.5.5,0,0,1-.5.5H0A.5.5,0,0,1-.5,8V0A.5.5,0,0,1,0-.5ZM13.5.5H.5v7h13Z" transform="translate(586 373)"/>
      <path id="Rectangle_19" data-name="Rectangle 19" d="M0-.5H14a.5.5,0,0,1,.5.5V8a.5.5,0,0,1-.5.5H0A.5.5,0,0,1-.5,8V0A.5.5,0,0,1,0-.5ZM13.5.5H.5v7h13Z" transform="translate(604 373)"/>
      <path id="Rectangle_20" data-name="Rectangle 20" d="M0-.5H14a.5.5,0,0,1,.5.5V8a.5.5,0,0,1-.5.5H0A.5.5,0,0,1-.5,8V0A.5.5,0,0,1,0-.5ZM13.5.5H.5v7h13Z" transform="translate(622 373)"/>
    </g>
  </g>
</svg>
