<svg xmlns="http://www.w3.org/2000/svg" width="83" height="83" viewBox="0 0 83 83">
  <g id="portrait_thumbnail-gallery" transform="translate(-576 -324)">
    <rect id="bb" width="83" height="83" transform="translate(576 324)" fill="none"/>
    <g id="icon" transform="translate(3.5 -0.5)">
      <path id="Rectangle_1" data-name="Rectangle 1" d="M0-.5H25a.5.5,0,0,1,.5.5V36a.5.5,0,0,1-.5.5H0A.5.5,0,0,1-.5,36V0A.5.5,0,0,1,0-.5ZM24.5.5H.5v35h24Z" transform="translate(587 328)"/>
      <path id="Path_1" data-name="Path 1" d="M48,150.178a.5.5,0,0,1-.354-.854l5.678-5.678a.5.5,0,0,1,.707,0l4.129,4.129a.5.5,0,0,1-.707.707l-3.776-3.776-5.324,5.324A.5.5,0,0,1,48,150.178Z" transform="translate(541.951 201.965)"/>
      <path id="Path_2" data-name="Path 2" d="M186.839,118.694a.5.5,0,0,1-.354-.146l-5.84-5.84L176.354,117a.5.5,0,1,1-.707-.707l4.645-4.645a.5.5,0,0,1,.707,0l6.194,6.194a.5.5,0,0,1-.354.854Z" transform="translate(422.21 231.9)"/>
      <path id="Ellipse_1" data-name="Ellipse 1" d="M1.621-.5A2.121,2.121,0,1,1-.5,1.621,2.124,2.124,0,0,1,1.621-.5Zm0,3.243A1.121,1.121,0,1,0,.5,1.621,1.123,1.123,0,0,0,1.621,2.743Z" transform="translate(591.023 340.357)"/>
      <path id="Rectangle_1-2" data-name="Rectangle 1" d="M0-.5H25a.5.5,0,0,1,.5.5V36a.5.5,0,0,1-.5.5H0A.5.5,0,0,1-.5,36V0A.5.5,0,0,1,0-.5ZM24.5.5H.5v35h24Z" transform="translate(587 368)"/>
      <path id="Path_1-2" data-name="Path 1" d="M48,150.178a.5.5,0,0,1-.354-.854l5.678-5.678a.5.5,0,0,1,.707,0l4.129,4.129a.5.5,0,0,1-.707.707l-3.776-3.776-5.324,5.324A.5.5,0,0,1,48,150.178Z" transform="translate(541.951 241.965)"/>
      <path id="Path_2-2" data-name="Path 2" d="M186.839,118.694a.5.5,0,0,1-.354-.146l-5.84-5.84L176.354,117a.5.5,0,1,1-.707-.707l4.645-4.645a.5.5,0,0,1,.707,0l6.194,6.194a.5.5,0,0,1-.354.854Z" transform="translate(422.21 271.9)"/>
      <path id="Ellipse_1-2" data-name="Ellipse 1" d="M1.621-.5A2.121,2.121,0,1,1-.5,1.621,2.124,2.124,0,0,1,1.621-.5Zm0,3.243A1.121,1.121,0,1,0,.5,1.621,1.123,1.123,0,0,0,1.621,2.743Z" transform="translate(591.023 380.357)"/>
      <path id="Rectangle_1-3" data-name="Rectangle 1" d="M0-.5H25a.5.5,0,0,1,.5.5V36a.5.5,0,0,1-.5.5H0A.5.5,0,0,1-.5,36V0A.5.5,0,0,1,0-.5ZM24.5.5H.5v35h24Z" transform="translate(616 328)"/>
      <path id="Path_1-3" data-name="Path 1" d="M48,150.178a.5.5,0,0,1-.354-.854l5.678-5.678a.5.5,0,0,1,.707,0l4.129,4.129a.5.5,0,0,1-.707.707l-3.776-3.776-5.324,5.324A.5.5,0,0,1,48,150.178Z" transform="translate(570.951 201.965)"/>
      <path id="Path_2-3" data-name="Path 2" d="M186.839,118.694a.5.5,0,0,1-.354-.146l-5.84-5.84L176.354,117a.5.5,0,1,1-.707-.707l4.645-4.645a.5.5,0,0,1,.707,0l6.194,6.194a.5.5,0,0,1-.354.854Z" transform="translate(451.21 231.9)"/>
      <path id="Ellipse_1-3" data-name="Ellipse 1" d="M1.621-.5A2.121,2.121,0,1,1-.5,1.621,2.124,2.124,0,0,1,1.621-.5Zm0,3.243A1.121,1.121,0,1,0,.5,1.621,1.123,1.123,0,0,0,1.621,2.743Z" transform="translate(620.023 340.357)"/>
      <path id="Rectangle_1-4" data-name="Rectangle 1" d="M0-.5H25a.5.5,0,0,1,.5.5V36a.5.5,0,0,1-.5.5H0A.5.5,0,0,1-.5,36V0A.5.5,0,0,1,0-.5ZM24.5.5H.5v35h24Z" transform="translate(616 368)"/>
      <path id="Path_1-4" data-name="Path 1" d="M48,150.178a.5.5,0,0,1-.354-.854l5.678-5.678a.5.5,0,0,1,.707,0l4.129,4.129a.5.5,0,0,1-.707.707l-3.776-3.776-5.324,5.324A.5.5,0,0,1,48,150.178Z" transform="translate(570.951 241.965)"/>
      <path id="Path_2-4" data-name="Path 2" d="M186.839,118.694a.5.5,0,0,1-.354-.146l-5.84-5.84L176.354,117a.5.5,0,1,1-.707-.707l4.645-4.645a.5.5,0,0,1,.707,0l6.194,6.194a.5.5,0,0,1-.354.854Z" transform="translate(451.21 271.9)"/>
      <path id="Ellipse_1-4" data-name="Ellipse 1" d="M1.621-.5A2.121,2.121,0,1,1-.5,1.621,2.124,2.124,0,0,1,1.621-.5Zm0,3.243A1.121,1.121,0,1,0,.5,1.621,1.123,1.123,0,0,0,1.621,2.743Z" transform="translate(620.023 380.357)"/>
    </g>
  </g>
</svg>
