<svg xmlns="http://www.w3.org/2000/svg" width="83" height="83" viewBox="0 0 83 83">
  <g id="portrait_minimal_design-gallery" transform="translate(-576 -324)">
    <rect id="bb" width="83" height="83" transform="translate(576 324)" fill="none"/>
    <g id="icon" transform="translate(5.5 1)">
      <path id="Rectangle_1" data-name="Rectangle 1" d="M0-.5H64a.5.5,0,0,1,.5.5V51a.5.5,0,0,1-.5.5H0A.5.5,0,0,1-.5,51V0A.5.5,0,0,1,0-.5ZM63.5.5H.5v50h63Z" transform="translate(580 339)"/>
      <path id="Path_1" data-name="Path 1" d="M48,154.54a.5.5,0,0,1-.354-.854l10.04-10.04a.5.5,0,0,1,.707,0l7.3,7.3a.5.5,0,0,1-.707.707l-6.948-6.948-9.686,9.686A.5.5,0,0,1,48,154.54Z" transform="translate(547.115 210.913)"/>
      <path id="Path_2" data-name="Path 2" d="M195.167,123.452a.5.5,0,0,1-.354-.146l-10.6-10.6-7.861,7.861a.5.5,0,0,1-.707-.707l8.214-8.214a.5.5,0,0,1,.707,0L195.52,122.6a.5.5,0,0,1-.354.854Z" transform="translate(433.718 239.262)"/>
      <path id="Ellipse_1" data-name="Ellipse 1" d="M3-.5A3.5,3.5,0,1,1-.5,3,3.5,3.5,0,0,1,3-.5Zm0,6A2.5,2.5,0,1,0,.5,3,2.5,2.5,0,0,0,3,5.5Z" transform="translate(596.544 345)"/>
      <circle id="Ellipse_10" data-name="Ellipse 10" cx="1" cy="1" r="1" transform="translate(624.5 384)"/>
      <circle id="Ellipse_11" data-name="Ellipse 11" cx="1" cy="1" r="1" transform="translate(628.5 384)"/>
      <circle id="Ellipse_12" data-name="Ellipse 12" cx="1" cy="1" r="1" transform="translate(632.5 384)"/>
      <circle id="Ellipse_13" data-name="Ellipse 13" cx="1" cy="1" r="1" transform="translate(636.5 384)"/>
    </g>
  </g>
</svg>
