<svg xmlns="http://www.w3.org/2000/svg" width="83" height="83" viewBox="0 0 83 83">
  <g id="calendar-block" transform="translate(-576 -324)">
    <rect id="bb" width="83" height="83" transform="translate(576 324)" fill="none"/>
    <g id="icon" transform="translate(587.293 335.253)">
      <path id="Path_8" data-name="Path 8" d="M50.956,88.574H9.459A4.012,4.012,0,0,1,5.5,84.519V43.633a.5.5,0,0,1,.5-.5H54.414a.5.5,0,0,1,.5.5V84.519A4.012,4.012,0,0,1,50.956,88.574ZM6.5,44.133V84.519a3.011,3.011,0,0,0,2.959,3.055h41.5a3.011,3.011,0,0,0,2.959-3.055V44.133Z" transform="translate(0 -33.58)"/>
      <path id="Line_11" data-name="Line 11" d="M48,.5H0A.5.5,0,0,1-.5,0,.5.5,0,0,1,0-.5H48a.5.5,0,0,1,.5.5A.5.5,0,0,1,48,.5Z" transform="translate(6.207 19.951)"/>
      <path id="Line_12" data-name="Line 12" d="M22.008.5H0A.5.5,0,0,1-.5,0,.5.5,0,0,1,0-.5H22.008a.5.5,0,0,1,.5.5A.5.5,0,0,1,22.008.5Z" transform="translate(23.53 27.536)"/>
      <path id="Line_13" data-name="Line 13" d="M0,7.273a.5.5,0,0,1-.5-.5V0A.5.5,0,0,1,0-.5.5.5,0,0,1,.5,0V6.773A.5.5,0,0,1,0,7.273Z" transform="translate(45.763 6)"/>
      <path id="Line_14" data-name="Line 14" d="M0,7.273a.5.5,0,0,1-.5-.5V0A.5.5,0,0,1,0-.5.5.5,0,0,1,.5,0V6.773A.5.5,0,0,1,0,7.273Z" transform="translate(14.653 6)"/>
      <path id="Line_15" data-name="Line 15" d="M13.677.5H0A.5.5,0,0,1-.5,0,.5.5,0,0,1,0-.5H13.677a.5.5,0,0,1,.5.5A.5.5,0,0,1,13.677.5Z" transform="translate(23.53 37.012)"/>
      <path id="Line_16" data-name="Line 16" d="M13.677.5H0A.5.5,0,0,1-.5,0,.5.5,0,0,1,0-.5H13.677a.5.5,0,0,1,.5.5A.5.5,0,0,1,13.677.5Z" transform="translate(23.53 46.488)"/>
      <path id="Ellipse_3" data-name="Ellipse 3" d="M2.37-.5A2.868,2.868,0,1,1-.5,2.368,2.872,2.872,0,0,1,2.37-.5Zm0,4.735A1.868,1.868,0,1,0,.5,2.368,1.871,1.871,0,0,0,2.37,4.235Z" transform="translate(13.585 24.964)"/>
      <path id="Ellipse_4" data-name="Ellipse 4" d="M2.37-.5A2.868,2.868,0,1,1-.5,2.368,2.872,2.872,0,0,1,2.37-.5Zm0,4.735A1.868,1.868,0,1,0,.5,2.368,1.871,1.871,0,0,0,2.37,4.235Z" transform="translate(13.585 34.435)"/>
      <path id="Ellipse_5" data-name="Ellipse 5" d="M2.37-.5A2.868,2.868,0,1,1-.5,2.368,2.872,2.872,0,0,1,2.37-.5Zm0,4.735A1.868,1.868,0,1,0,.5,2.368,1.871,1.871,0,0,0,2.37,4.235Z" transform="translate(13.585 43.911)"/>
    </g>
  </g>
</svg>
