<svg xmlns="http://www.w3.org/2000/svg" width="83" height="83" viewBox="0 0 83 83">
  <g id="files-block" transform="translate(-576 -324)">
    <rect id="bb" width="83" height="83" transform="translate(576 324)" fill="none"/>
    <g id="icon" transform="translate(597.806 341.912)">
      <path id="Path_4" data-name="Path 4" d="M27.483,49.329H2.558A2.06,2.06,0,0,1,.5,47.272V18.385a.5.5,0,0,1,.216-.411L8.5,12.589a.5.5,0,0,1,.284-.089H27.483a2.06,2.06,0,0,1,2.058,2.058V47.272A2.06,2.06,0,0,1,27.483,49.329ZM1.5,18.647V47.272a1.059,1.059,0,0,0,1.058,1.058H27.483a1.059,1.059,0,0,0,1.058-1.058V14.558A1.059,1.059,0,0,0,27.483,13.5H8.945Z" transform="translate(0 -2.653)"/>
      <path id="Path_5" data-name="Path 5" d="M37.694,40.214a.5.5,0,0,1-.5-.5V8.558A1.059,1.059,0,0,0,36.136,7.5H19a.5.5,0,0,1,0-1H36.136a2.06,2.06,0,0,1,2.058,2.058V39.714A.5.5,0,0,1,37.694,40.214Z" transform="translate(-3.98 -1.327)"/>
      <path id="Path_6" data-name="Path 6" d="M43.694,34.214a.5.5,0,0,1-.5-.5V2.558A1.059,1.059,0,0,0,42.136,1.5H25a.5.5,0,1,1,0-1H42.136a2.06,2.06,0,0,1,2.058,2.058V33.714A.5.5,0,0,1,43.694,34.214Z" transform="translate(-5.306)"/>
      <path id="Path_7" data-name="Path 7" d="M10.673,22.173H6a.5.5,0,0,1,0-1h4.173V17a.5.5,0,0,1,1,0v4.673A.5.5,0,0,1,10.673,22.173Z" transform="translate(-1.106 -3.538)"/>
    </g>
  </g>
</svg>
