<svg xmlns="http://www.w3.org/2000/svg" width="83" height="83" viewBox="0 0 83 83">
  <g id="form_submissions-block" transform="translate(-576 -324)">
    <rect id="bb" width="83" height="83" transform="translate(576 324)" fill="none"/>
    <g id="icon">
      <path id="Path_3" data-name="Path 3" d="M46.274,333.358a.5.5,0,0,1-.5-.5v-2.831c0-6.986-5.253-12.669-11.709-12.669H24.709c-6.456,0-11.709,5.683-11.709,12.669v2.831a.5.5,0,0,1-1,0v-2.831a14.121,14.121,0,0,1,3.709-9.652,12.193,12.193,0,0,1,9-4.017h9.356a12.193,12.193,0,0,1,9,4.017,14.121,14.121,0,0,1,3.709,9.652v2.831A.5.5,0,0,1,46.274,333.358Z" transform="translate(571.226 52.085)"/>
      <path id="Ellipse_2" data-name="Ellipse 2" d="M8.948-.5A9.448,9.448,0,1,1-.5,8.948,9.458,9.458,0,0,1,8.948-.5Zm0,17.9A8.448,8.448,0,1,0,.5,8.948,8.457,8.457,0,0,0,8.948,17.4Z" transform="translate(591.573 347.054) rotate(-0.597)"/>
      <path id="Line_1" data-name="Line 1" d="M28,.5H0A.5.5,0,0,1-.5,0,.5.5,0,0,1,0-.5H28a.5.5,0,0,1,.5.5A.5.5,0,0,1,28,.5Z" transform="translate(625.5 359.5)"/>
      <path id="Line_2" data-name="Line 2" d="M23,.5H0A.5.5,0,0,1-.5,0,.5.5,0,0,1,0-.5H23a.5.5,0,0,1,.5.5A.5.5,0,0,1,23,.5Z" transform="translate(625.5 363.5)"/>
      <path id="Line_3" data-name="Line 3" d="M28,.5H0A.5.5,0,0,1-.5,0,.5.5,0,0,1,0-.5H28a.5.5,0,0,1,.5.5A.5.5,0,0,1,28,.5Z" transform="translate(625.5 367.5)"/>
      <path id="Line_4" data-name="Line 4" d="M14,.5H0A.5.5,0,0,1-.5,0,.5.5,0,0,1,0-.5H14a.5.5,0,0,1,.5.5A.5.5,0,0,1,14,.5Z" transform="translate(625.5 371.5)"/>
    </g>
  </g>
</svg>
