<svg xmlns="http://www.w3.org/2000/svg" width="83" height="83" viewBox="0 0 83 83">
  <g id="gallery-block" transform="translate(-576 -324)">
    <rect id="bb" width="83" height="83" transform="translate(576 324)" fill="none"/>
    <g id="icon" transform="translate(-4.5 3.5)">
      <path id="Rectangle_1" data-name="Rectangle 1" d="M0-.5H42a.5.5,0,0,1,.5.5V30a.5.5,0,0,1-.5.5H0A.5.5,0,0,1-.5,30V0A.5.5,0,0,1,0-.5ZM41.5.5H.5v29h41Z" transform="translate(597 351)"/>
      <path id="Path_1" data-name="Path 1" d="M48,154.54a.5.5,0,0,1-.354-.854l10.04-10.04a.5.5,0,0,1,.707,0l7.3,7.3a.5.5,0,0,1-.707.707l-6.948-6.948-9.686,9.686A.5.5,0,0,1,48,154.54Z" transform="translate(553.571 222.913)"/>
      <path id="Path_2" data-name="Path 2" d="M195.167,123.452a.5.5,0,0,1-.354-.146l-10.6-10.6-7.861,7.861a.5.5,0,0,1-.707-.707l8.214-8.214a.5.5,0,0,1,.707,0L195.52,122.6a.5.5,0,0,1-.354.854Z" transform="translate(440.175 251.262)"/>
      <path id="Ellipse_1" data-name="Ellipse 1" d="M3-.5A3.5,3.5,0,1,1-.5,3,3.5,3.5,0,0,1,3-.5Zm0,6A2.5,2.5,0,1,0,.5,3,2.5,2.5,0,0,0,3,5.5Z" transform="translate(603 357)"/>
      <path id="Line_5" data-name="Line 5" d="M0,2.5A.5.5,0,0,1-.5,2V0A.5.5,0,0,1,0-.5.5.5,0,0,1,.5,0V2A.5.5,0,0,1,0,2.5Z" transform="translate(602 347)"/>
      <path id="Line_6" data-name="Line 6" d="M0,2.5A.5.5,0,0,1-.5,2V0A.5.5,0,0,1,0-.5.5.5,0,0,1,.5,0V2A.5.5,0,0,1,0,2.5Z" transform="translate(643 376) rotate(90)"/>
      <path id="Line_7" data-name="Line 7" d="M0,29.5A.5.5,0,0,1-.5,29V0A.5.5,0,0,1,0-.5.5.5,0,0,1,.5,0V29A.5.5,0,0,1,0,29.5Z" transform="translate(643 347)"/>
      <path id="Line_8" data-name="Line 8" d="M41,.5H0A.5.5,0,0,1-.5,0,.5.5,0,0,1,0-.5H41a.5.5,0,0,1,.5.5A.5.5,0,0,1,41,.5Z" transform="translate(602 347)"/>
      <path id="Line_5-2" data-name="Line 5" d="M0,2.5A.5.5,0,0,1-.5,2V0A.5.5,0,0,1,0-.5.5.5,0,0,1,.5,0V2A.5.5,0,0,1,0,2.5Z" transform="translate(606 343)"/>
      <path id="Line_6-2" data-name="Line 6" d="M0,2.5A.5.5,0,0,1-.5,2V0A.5.5,0,0,1,0-.5.5.5,0,0,1,.5,0V2A.5.5,0,0,1,0,2.5Z" transform="translate(647 372) rotate(90)"/>
      <path id="Line_7-2" data-name="Line 7" d="M0,29.5A.5.5,0,0,1-.5,29V0A.5.5,0,0,1,0-.5.5.5,0,0,1,.5,0V29A.5.5,0,0,1,0,29.5Z" transform="translate(647 343)"/>
      <path id="Line_8-2" data-name="Line 8" d="M41,.5H0A.5.5,0,0,1-.5,0,.5.5,0,0,1,0-.5H41a.5.5,0,0,1,.5.5A.5.5,0,0,1,41,.5Z" transform="translate(606 343)"/>
    </g>
  </g>
</svg>
