<svg xmlns="http://www.w3.org/2000/svg" width="83" height="83" viewBox="0 0 83 83">
  <g id="global_block-block" transform="translate(-576 -324)">
    <rect id="bb" width="83" height="83" transform="translate(576 324)" fill="none"/>
    <g id="icon" transform="translate(-4 4)">
      <path id="Rectangle_1" data-name="Rectangle 1" d="M0-.5H42a.5.5,0,0,1,.5.5V30a.5.5,0,0,1-.5.5H0A.5.5,0,0,1-.5,30V0A.5.5,0,0,1,0-.5ZM41.5.5H.5v29h41Z" transform="translate(597 351)"/>
      <path id="Ellipse_9" data-name="Ellipse 9" d="M9.368-.5A9.868,9.868,0,1,1-.5,9.368,9.88,9.88,0,0,1,9.368-.5Zm0,18.737A8.868,8.868,0,1,0,.5,9.368,8.878,8.878,0,0,0,9.368,18.237Z" transform="translate(608.632 356.632)"/>
      <path id="Path_9" data-name="Path 9" d="M19.941,20.237c-1.548,0-2.979-1.067-4.029-3.006a14.686,14.686,0,0,1-1.547-6.863,14.686,14.686,0,0,1,1.547-6.863C16.962,1.567,18.393.5,19.941.5S22.92,1.567,23.97,3.506a14.686,14.686,0,0,1,1.547,6.863,14.686,14.686,0,0,1-1.547,6.863C22.92,19.169,21.489,20.237,19.941,20.237Zm0-18.737c-1.164,0-2.282.881-3.15,2.482a13.679,13.679,0,0,0-1.426,6.386,13.679,13.679,0,0,0,1.426,6.386c.867,1.6,1.986,2.482,3.15,2.482s2.283-.881,3.15-2.482a13.679,13.679,0,0,0,1.426-6.386,13.679,13.679,0,0,0-1.426-6.386C22.224,2.381,21.1,1.5,19.941,1.5Z" transform="translate(598.059 355.632)"/>
      <path id="Path_10" data-name="Path 10" d="M22.706,46.852a.5.5,0,0,1-.335-.129,10.085,10.085,0,0,0-6.619-2.2,10.084,10.084,0,0,0-6.619,2.2.5.5,0,1,1-.67-.742,9.148,9.148,0,0,1,3.163-1.794,13.206,13.206,0,0,1,8.253,0,9.148,9.148,0,0,1,3.163,1.794.5.5,0,0,1-.335.871Z" transform="translate(602.248 325.925)"/>
      <path id="Path_11" data-name="Path 11" d="M15.751,13.812a12.733,12.733,0,0,1-4.127-.661,9.149,9.149,0,0,1-3.163-1.794.5.5,0,0,1,.67-.742,10.084,10.084,0,0,0,6.619,2.2,10.085,10.085,0,0,0,6.619-2.2.5.5,0,0,1,.67.742,9.148,9.148,0,0,1-3.163,1.794A12.734,12.734,0,0,1,15.751,13.812Z" transform="translate(602.248 348.737)"/>
      <path id="Line_20" data-name="Line 20" d="M18.737.5H0A.5.5,0,0,1-.5,0,.5.5,0,0,1,0-.5H18.737a.5.5,0,0,1,.5.5A.5.5,0,0,1,18.737.5Z" transform="translate(608.632 366)"/>
      <path id="Line_21" data-name="Line 21" d="M0,19.237a.5.5,0,0,1-.5-.5V0A.5.5,0,0,1,0-.5.5.5,0,0,1,.5,0V18.737A.5.5,0,0,1,0,19.237Z" transform="translate(618 356.632)"/>
      <path id="Line_5" data-name="Line 5" d="M0,2.5A.5.5,0,0,1-.5,2V0A.5.5,0,0,1,0-.5.5.5,0,0,1,.5,0V2A.5.5,0,0,1,0,2.5Z" transform="translate(602 347)"/>
      <path id="Line_6" data-name="Line 6" d="M0,2.5A.5.5,0,0,1-.5,2V0A.5.5,0,0,1,0-.5.5.5,0,0,1,.5,0V2A.5.5,0,0,1,0,2.5Z" transform="translate(643 376) rotate(90)"/>
      <path id="Line_7" data-name="Line 7" d="M0,29.5A.5.5,0,0,1-.5,29V0A.5.5,0,0,1,0-.5.5.5,0,0,1,.5,0V29A.5.5,0,0,1,0,29.5Z" transform="translate(643 347)"/>
      <path id="Line_8" data-name="Line 8" d="M41,.5H0A.5.5,0,0,1-.5,0,.5.5,0,0,1,0-.5H41a.5.5,0,0,1,.5.5A.5.5,0,0,1,41,.5Z" transform="translate(602 347)"/>
      <path id="Line_5-2" data-name="Line 5" d="M0,2.5A.5.5,0,0,1-.5,2V0A.5.5,0,0,1,0-.5.5.5,0,0,1,.5,0V2A.5.5,0,0,1,0,2.5Z" transform="translate(606 343)"/>
      <path id="Line_6-2" data-name="Line 6" d="M0,2.5A.5.5,0,0,1-.5,2V0A.5.5,0,0,1,0-.5.5.5,0,0,1,.5,0V2A.5.5,0,0,1,0,2.5Z" transform="translate(647 372) rotate(90)"/>
      <path id="Line_7-2" data-name="Line 7" d="M0,29.5A.5.5,0,0,1-.5,29V0A.5.5,0,0,1,0-.5.5.5,0,0,1,.5,0V29A.5.5,0,0,1,0,29.5Z" transform="translate(647 343)"/>
      <path id="Line_8-2" data-name="Line 8" d="M41,.5H0A.5.5,0,0,1-.5,0,.5.5,0,0,1,0-.5H41a.5.5,0,0,1,.5.5A.5.5,0,0,1,41,.5Z" transform="translate(606 343)"/>
    </g>
  </g>
</svg>
