<svg xmlns="http://www.w3.org/2000/svg" width="83" height="83" viewBox="0 0 83 83">
  <g id="buttons-files" transform="translate(-576 -324)">
    <rect id="bb" width="83" height="83" transform="translate(576 324)" fill="none"/>
    <g id="icon" transform="translate(-13.602 6.49)">
      <path id="Rectangle_2" data-name="Rectangle 2" d="M3.461,1a2.461,2.461,0,0,0,0,4.922h15a2.461,2.461,0,0,0,0-4.922h-15m0-1h15a3.461,3.461,0,0,1,0,6.922h-15A3.461,3.461,0,0,1,3.461,0Z" transform="translate(607.544 360.74)"/>
      <path id="Rectangle_26" data-name="Rectangle 26" d="M3.461,1a2.461,2.461,0,0,0,0,4.922h15a2.461,2.461,0,0,0,0-4.922h-15m0-1h15a3.461,3.461,0,0,1,0,6.922h-15A3.461,3.461,0,0,1,3.461,0Z" transform="translate(632.972 360.74)"/>
      <path id="Rectangle_2-2" data-name="Rectangle 2" d="M3.5,1a2.5,2.5,0,0,0,0,5h14a2.5,2.5,0,0,0,0-5H3.5m0-1h14a3.5,3.5,0,0,1,0,7H3.5a3.5,3.5,0,0,1,0-7Z" transform="translate(620.602 350.51)"/>
      <path id="Rectangle_28" data-name="Rectangle 28" d="M3.5,1a2.5,2.5,0,0,0,0,5h15a2.5,2.5,0,0,0,0-5H3.5m0-1h15a3.5,3.5,0,0,1,0,7H3.5a3.5,3.5,0,0,1,0-7Z" transform="translate(594.602 350.51)"/>
      <path id="Rectangle_27" data-name="Rectangle 27" d="M3.5,1a2.5,2.5,0,0,0,0,5h15a2.5,2.5,0,0,0,0-5H3.5m0-1h15a3.5,3.5,0,0,1,0,7H3.5a3.5,3.5,0,0,1,0-7Z" transform="translate(645.602 350.51)"/>
    </g>
  </g>
</svg>
