<svg xmlns="http://www.w3.org/2000/svg" width="83" height="83" viewBox="0 0 83 83">
  <g id="list-files" transform="translate(-576 -324)">
    <rect id="bb" width="83" height="83" transform="translate(576 324)" fill="none"/>
    <g id="icon" transform="translate(-10.607 -8.77)">
      <path id="Line_17" data-name="Line 17" d="M38.584.5H0A.5.5,0,0,1-.5,0,.5.5,0,0,1,0-.5H38.584a.5.5,0,0,1,.5.5A.5.5,0,0,1,38.584.5Z" transform="translate(611.889 356.856)"/>
      <path id="Ellipse_6" data-name="Ellipse 6" d="M2.947-.5A3.444,3.444,0,1,1-.5,2.944,3.449,3.449,0,0,1,2.947-.5Zm0,5.888A2.444,2.444,0,1,0,.5,2.944,2.448,2.448,0,0,0,2.947,5.388Z" transform="translate(599.524 353.659)"/>
      <path id="Line_17-2" data-name="Line 17" d="M38.584.5H0A.5.5,0,0,1-.5,0,.5.5,0,0,1,0-.5H38.584a.5.5,0,0,1,.5.5A.5.5,0,0,1,38.584.5Z" transform="translate(611.889 392.19)"/>
      <path id="Ellipse_6-2" data-name="Ellipse 6" d="M2.947-.5A3.444,3.444,0,1,1-.5,2.944,3.449,3.449,0,0,1,2.947-.5Zm0,5.888A2.444,2.444,0,1,0,.5,2.944,2.448,2.448,0,0,0,2.947,5.388Z" transform="translate(599.524 388.993)"/>
      <path id="Line_18" data-name="Line 18" d="M44.8.5H0A.5.5,0,0,1-.5,0,.5.5,0,0,1,0-.5H44.8a.5.5,0,0,1,.5.5A.5.5,0,0,1,44.8.5Z" transform="translate(611.889 368.639)"/>
      <path id="Ellipse_7" data-name="Ellipse 7" d="M2.947-.5A3.444,3.444,0,1,1-.5,2.944,3.449,3.449,0,0,1,2.947-.5Zm0,5.888A2.444,2.444,0,1,0,.5,2.944,2.448,2.448,0,0,0,2.947,5.388Z" transform="translate(599.524 365.435)"/>
      <path id="Line_19" data-name="Line 19" d="M21.177.5H0A.5.5,0,0,1-.5,0,.5.5,0,0,1,0-.5H21.177a.5.5,0,0,1,.5.5A.5.5,0,0,1,21.177.5Z" transform="translate(611.889 380.421)"/>
      <path id="Ellipse_8" data-name="Ellipse 8" d="M2.947-.5A3.444,3.444,0,1,1-.5,2.944,3.449,3.449,0,0,1,2.947-.5Zm0,5.888A2.444,2.444,0,1,0,.5,2.944,2.448,2.448,0,0,0,2.947,5.388Z" transform="translate(599.524 377.217)"/>
    </g>
  </g>
</svg>
